/* XPM */
static char *noname[] = {
/* width height ncolors chars_per_pixel */
"9 7 2 1",
/* colors */
"  c Black",
". c White",
/* pixels */
".        ",
".        ",
". ...... ",
"      .. ",
" .... .. ",
" .... .. ",
"         "
};
